<svg width="17" height="17" viewBox="0 0 17 17" fill="none" xmlns="http://www.w3.org/2000/svg">
<path d="M7.53937 0.702898C7.83072 -0.234732 9.1578 -0.23481 9.44926 0.702788L10.7457 4.87321C10.8757 5.29142 11.2627 5.57639 11.7006 5.57636L15.9864 5.57612C16.9443 5.57607 17.3542 6.79295 16.5914 7.37241L13.0489 10.0635C12.7139 10.318 12.574 10.7549 12.6989 11.1566L14.0341 15.4518C14.3229 16.381 13.2492 17.1335 12.4743 16.545L9.09993 13.9822C8.74239 13.7107 8.24771 13.7107 7.8902 13.9823L4.5161 16.5455C3.74128 17.1341 2.6675 16.3816 2.95623 15.4524L4.29093 11.1571C4.41576 10.7554 4.27581 10.3184 3.94079 10.064L0.398006 7.37333C-0.364852 6.79395 0.04484 5.57702 1.00277 5.57697L5.28855 5.57672C5.7265 5.5767 6.11349 5.29169 6.24345 4.87346L7.53937 0.702898Z" fill="#DFB639"/>
</svg>
